
-: Cover :-


-:



    	http://desibbrg.org/images/40241152882605843432.jpg
    	http://desibbrg.org/images/81591326418234209111.jpg
    	http://desibbrg.org/images/00917011979729625812.jpg
    	http://desibbrg.org/images/77192241661316563724.jpg
    	http://desibbrg.org/images/97231433106444034191.jpg
    	http://desibbrg.org/images/86858773769147921420.jpg
    	http://desibbrg.org/images/40597892330125195038.jpg
    	http://desibbrg.org/images/45785439452761471639.jpg
    	http://desibbrg.org/images/89118912427135066896.jpg
    	http://desibbrg.org/images/76806568254317200639.jpg
    	http://desibbrg.org/images/49720533833932444950.jpg
    	http://desibbrg.org/images/32963663827752956882.jpg
    	http://desibbrg.org/images/82275328194306414167.jpg


-: INFo :-


General

Format                           : Matroska
File size                        : 698 MiB
Duration                         : 2h 1mn
Overall bit rate                 : 807 Kbps
Encoded date                     : UTC 2013-04-14 10:04:48
Writing application              : mkvmerge v6.1.0 ('Old Devil') built on Mar  2 2013 14:32:37
Writing library                  : libebml v1.3.0 + libmatroska v1.4.0

Video
ID                               : 1
Format                           : AVC
Format/Info                      : Advanced Video Codec
Format profile                   : High@L2.1
Format settings, CABAC           : Yes
Format settings, ReFrames        : 5 frames
Muxing mode                      : Container profile=Unknown@2.1
Codec ID                         : V_MPEG4/ISO/AVC
Duration                         : 2h 1mn
Bit rate                         : 725 Kbps
Width                            : 640 pixels
Height                           : 272 pixels
Display aspect ratio             : 2.35:1
Frame rate                       : 25.000 fps
Color space                      : YUV
Chroma subsampling               : 4:2:0
Bit depth                        : 8 bits
Scan type                        : Progressive
Bits/(Pixel*Frame)               : 0.167
Stream size                      : 615 MiB (88%)
Writing library                  : x264 core 130 r2273 b3065e6

Audio
ID                               : 2
Format                           : MPEG Audio
Format version                   : Version 1
Format profile                   : Layer 3
Mode                             : Joint stereo
Mode extension                   : MS Stereo
Codec ID                         : A_MPEG/L3
Codec ID/Hint                    : MP3
Duration                         : 2h 1mn
Bit rate mode                    : Constant
Bit rate                         : 80.0 Kbps
Channel(s)                       : 2 channels
Sampling rate                    : 32.0 KHz
Stream size                      : 69.3 MiB (10%)
Writing library                  : LAME3.99r
Encoding settings                : -m j -V 4 -q 2 -lowpass 13.5 -b 80



www.imdb.com/title/tt2341766

Nautanki Saala! Cast & Crew:

    Banner
    Ramesh Sippy Entertainment
    T-Series Super Cassettes Industries Ltd.

    Status
    Released

    Release Date
    12 Apr 2013

    Genre
    Romance, Comedy

    Producer
    Ramesh Sippy
    Bhushan Kumar
    Kishan Kumar

    Star Cast
    Ayushmann Khurrana.... RP aka Ram Parmar
    Kunaal Roy Kapur.... Mandar Lele
    Abhishek Bachchan.... Cameo
    Evelyn Sharma.... Seetha
    Pooja Salvi.... Nandini Patel
    Gaelyn Mendonca.... Chitra
    Rufy Khan.... Loli
    Sulbha Arya.... Ajji

    Costume Designers
    Priyanjali Lahiri

    Ex. Co Producers
    Ajay Kapoor
    Garima Mehta

    Publicity Pro
    Parull Gossain

    Censor Details:

    Censor Dates
    28 Mar 2013

    Reels
    Not Available.

    Length in metres
    0.0

Music Director

    Mikey McCleary
    Falak Shabbir
    Ayushmann Khurrana
    Rochak Kohli
    Anand Milind
    Rashid Khan
    Laxmikant Kudalkar
    Pyarelal

Color
C
Language
Hindi
Director

    Rohan Sippy

Singers

    Nitin Mukesh
    Rahat Fateh Ali Khan
    Falak Shabbir
    Ayushmann Khurrana
    Neeti Mohan
    Saba Azad
    Geet Sagar
    Bruno Carvalo
    Santosh Sawant
    Jovian Soans
    Aaftab Sabri
    Hashim Sabri
    Suzanne Dmello
    Tulsi Kumar

Lyricist

    Sameer
    Javed Akhtar
    Kausar Munir
    Falak Shabbir
    Ayushmann Khurrana
    Rochak Kohli
    Gurpreet Saini

Editor

    Aarif Shaikh

Cinematography

    Manoj Lobo

Art

    Saini S. Johray

Screenplay

    Nipun Dharmadhikari
    Rohan Sippy
    Charu Dutt Acharya

Dialogue

    Nipun Dharmadhikari
    Rohan Sippy
    Charu Dutt Acharya

    Casting Director
    Abhishek Pandey

    Shooting Location(City & Country)
    India

    Sound
    Manas Chaudhary

    Music Company
    T-Series


